<?xml version="1.0" encoding="UTF-8"?>
<svg xmlns="http://www.w3.org/2000/svg" viewBox="0 0 1600 1050" font-family="'Segoe UI',system-ui,-apple-system,sans-serif">
  <defs>
    <filter id="sh" x="-5%" y="-5%" width="110%" height="115%">
      <feDropShadow dx="0" dy="4" stdDeviation="6" flood-opacity="0.12"/>
    </filter>
    <marker id="arr" viewBox="0 0 10 6" refX="9" refY="3" markerWidth="12" markerHeight="9" orient="auto-start-reverse">
      <path d="M0,0 L10,3 L0,6 Z" fill="#94a3b8"/>
    </marker>
    <marker id="arrG" viewBox="0 0 10 6" refX="9" refY="3" markerWidth="12" markerHeight="9" orient="auto-start-reverse">
      <path d="M0,0 L10,3 L0,6 Z" fill="#16a34a"/>
    </marker>
  </defs>

  <rect width="1600" height="1050" fill="#f8fafc"/>

  <!-- ═══════════════════════ TITLE ═══════════════════════ -->
  <text x="800" y="50" text-anchor="middle" font-size="34" font-weight="700" fill="#1e293b" letter-spacing="3">SYSTEM ARCHITECTURE</text>
  <text x="800" y="80" text-anchor="middle" font-size="16" fill="#94a3b8">Real-Time Autonomous Zero-Day DoS Detection Engine</text>

  <!-- ═══════════════════════════════════════════════════════════════════════ -->
  <!-- ROW 1: BATCH TRAINING -->
  <!-- ═══════════════════════════════════════════════════════════════════════ -->
  <rect x="80" y="105" width="1340" height="36" rx="6" fill="#f1f5f9"/>
  <text x="100" y="129" font-size="15" font-weight="700" fill="#475569" letter-spacing="2">BATCH TRAINING PIPELINE</text>

  <!-- ──────────── 1. CICIDS2017 Database ──────────── -->
  <g transform="translate(100,160)">
    <g filter="url(#sh)">
      <ellipse cx="55" cy="18" rx="48" ry="16" fill="#93c5fd"/>
      <rect x="7" y="18" width="96" height="60" fill="#3b82f6"/>
      <ellipse cx="55" cy="78" rx="48" ry="16" fill="#2563eb"/>
      <ellipse cx="55" cy="18" rx="48" ry="16" fill="#93c5fd"/>
      <line x1="7" y1="18" x2="7" y2="78" stroke="#2563eb" stroke-width="1.2"/>
      <line x1="103" y1="18" x2="103" y2="78" stroke="#2563eb" stroke-width="1.2"/>
      <ellipse cx="55" cy="38" rx="48" ry="10" fill="none" stroke="#bfdbfe" stroke-width="1"/>
      <ellipse cx="55" cy="58" rx="48" ry="10" fill="none" stroke="#bfdbfe" stroke-width="1"/>
    </g>
  </g>
  <text x="155" y="270" text-anchor="middle" font-size="18" font-weight="700" fill="#1e293b">CICIDS2017</text>
  <text x="155" y="294" text-anchor="middle" font-size="13" fill="#64748b">~693K flows · 84 features</text>

  <!-- Arrow 1→2 -->
  <line x1="218" y1="215" x2="288" y2="215" stroke="#94a3b8" stroke-width="2.5" marker-end="url(#arr)"/>

  <!-- ──────────── 2. Preprocessing Gear ──────────── -->
  <g transform="translate(300,152)">
    <g filter="url(#sh)">
      <circle cx="62" cy="55" r="44" fill="none" stroke="#22c55e" stroke-width="6"/>
      <rect x="57" y="3" width="10" height="18" rx="3" fill="#22c55e"/>
      <rect x="57" y="89" width="10" height="18" rx="3" fill="#22c55e"/>
      <rect x="3" y="50" width="18" height="10" rx="3" fill="#22c55e"/>
      <rect x="103" y="50" width="18" height="10" rx="3" fill="#22c55e"/>
      <rect x="18" y="12" width="10" height="18" rx="3" fill="#22c55e" transform="rotate(45,23,21)"/>
      <rect x="96" y="12" width="10" height="18" rx="3" fill="#22c55e" transform="rotate(-45,101,21)"/>
      <rect x="18" y="80" width="10" height="18" rx="3" fill="#22c55e" transform="rotate(-45,23,89)"/>
      <rect x="96" y="80" width="10" height="18" rx="3" fill="#22c55e" transform="rotate(45,101,89)"/>
      <circle cx="62" cy="55" r="22" fill="#dcfce7"/>
      <path d="M50,68 L74,38 M70,34 L78,42 M74,38 L66,30" stroke="#16a34a" stroke-width="3.5" stroke-linecap="round" fill="none"/>
    </g>
  </g>
  <text x="362" y="270" text-anchor="middle" font-size="18" font-weight="700" fill="#1e293b">Preprocessing</text>
  <text x="362" y="294" text-anchor="middle" font-size="13" fill="#64748b">Clean · Encode · Scale · Select</text>
  <text x="362" y="314" text-anchor="middle" font-size="13" fill="#64748b">30 features selected</text>

  <!-- Arrow 2→3 -->
  <line x1="448" y1="215" x2="520" y2="215" stroke="#94a3b8" stroke-width="2.5" marker-end="url(#arr)"/>

  <!-- ──────────── 3. Pie Chart Split ──────────── -->
  <g transform="translate(532,162)">
    <g filter="url(#sh)">
      <circle cx="42" cy="38" r="36" fill="#e0e7ff" stroke="#818cf8" stroke-width="2.5"/>
      <path d="M42,38 L42,2 A36,36 0 0,1 73.5,57 Z" fill="#818cf8"/>
    </g>
  </g>
  <text x="574" y="252" text-anchor="middle" font-size="18" font-weight="700" fill="#1e293b">80 / 20 Split</text>

  <!-- Branch Train (up) -->
  <path d="M610,200 L642,172 L708,172" stroke="#94a3b8" stroke-width="2.5" fill="none" marker-end="url(#arr)"/>
  <text x="626" y="166" font-size="13" fill="#64748b" font-weight="600">Train</text>

  <!-- Branch Test (down) -->
  <path d="M610,230 L642,258 L708,258" stroke="#94a3b8" stroke-width="2.5" fill="none" marker-end="url(#arr)"/>
  <text x="626" y="252" font-size="13" fill="#64748b" font-weight="600">Test</text>

  <!-- ──────────── 4. Brain / Isolation Forest ──────────── -->
  <g transform="translate(720,120)">
    <g filter="url(#sh)">
      <ellipse cx="65" cy="50" rx="55" ry="44" fill="#ede9fe" stroke="#8b5cf6" stroke-width="3"/>
      <path d="M36,32 Q65,12 94,35" stroke="#8b5cf6" stroke-width="2.5" fill="none"/>
      <path d="M28,52 Q62,34 98,54" stroke="#8b5cf6" stroke-width="2.5" fill="none"/>
      <path d="M33,72 Q65,55 94,74" stroke="#8b5cf6" stroke-width="2.5" fill="none"/>
      <path d="M58,20 L46,50 L60,50 L50,78" stroke="#7c3aed" stroke-width="4.5" stroke-linecap="round" fill="none"/>
    </g>
  </g>
  <text x="785" y="232" text-anchor="middle" font-size="18" font-weight="700" fill="#1e293b">Isolation Forest</text>
  <text x="785" y="256" text-anchor="middle" font-size="13" fill="#64748b">Anomaly Detection</text>
  <text x="785" y="278" text-anchor="middle" font-size="12" fill="#8b5cf6" font-weight="600">200 trees · contamination 0.1</text>

  <!-- ──────────── 5. Tree / Random Forest ──────────── -->
  <g transform="translate(720,295)">
    <g filter="url(#sh)">
      <rect x="57" y="65" width="14" height="28" fill="#92400e" rx="2"/>
      <ellipse cx="64" cy="50" r="36" ry="24" fill="#dcfce7" stroke="#22c55e" stroke-width="2.5"/>
      <ellipse cx="64" cy="38" r="28" ry="18" fill="#bbf7d0" stroke="#22c55e" stroke-width="2"/>
      <ellipse cx="64" cy="28" r="20" ry="13" fill="#86efac"/>
      <circle cx="40" cy="46" r="8" fill="#4ade80"/>
      <circle cx="88" cy="46" r="8" fill="#4ade80"/>
      <circle cx="50" cy="34" r="6" fill="#22c55e"/>
      <circle cx="78" cy="34" r="6" fill="#22c55e"/>
    </g>
  </g>
  <text x="784" y="410" text-anchor="middle" font-size="18" font-weight="700" fill="#1e293b">Random Forest</text>
  <text x="784" y="434" text-anchor="middle" font-size="13" fill="#64748b">Classification</text>
  <text x="784" y="456" text-anchor="middle" font-size="12" fill="#22c55e" font-weight="600">150 trees · depth 20 · balanced</text>

  <!-- Arrows: IF → Eval, RF → Eval -->
  <path d="M845,195 L882,195 L882,235 L930,235" stroke="#94a3b8" stroke-width="2.5" fill="none" marker-end="url(#arr)"/>
  <path d="M845,380 L882,380 L882,235 L930,235" stroke="#94a3b8" stroke-width="2.5" fill="none" marker-end="url(#arr)"/>

  <!-- ──────────── 6. Gauge / Evaluation ──────────── -->
  <g transform="translate(942,155)">
    <g filter="url(#sh)">
      <path d="M12,85 A62,62 0 0,1 124,85" fill="none" stroke="#e2e8f0" stroke-width="12" stroke-linecap="round"/>
      <path d="M12,85 A62,62 0 0,1 116,44" fill="none" stroke="#334155" stroke-width="12" stroke-linecap="round"/>
      <line x1="68" y1="85" x2="104" y2="44" stroke="#1e293b" stroke-width="4" stroke-linecap="round"/>
      <circle cx="68" cy="85" r="6" fill="#1e293b"/>
    </g>
  </g>
  <text x="1010" y="278" text-anchor="middle" font-size="28" font-weight="800" fill="#1e293b">95.8%</text>
  <text x="1010" y="310" text-anchor="middle" font-size="18" font-weight="700" fill="#1e293b">Evaluation</text>
  <text x="1010" y="336" text-anchor="middle" font-size="13" fill="#64748b">Accuracy · F1 · ROC-AUC</text>
  <text x="1010" y="358" text-anchor="middle" font-size="13" fill="#64748b">Confusion Matrix · Latency</text>

  <!-- Arrow 6→7 -->
  <line x1="1078" y1="235" x2="1135" y2="235" stroke="#94a3b8" stroke-width="2.5" marker-end="url(#arr)"/>

  <!-- ──────────── 7. Document / Reports ──────────── -->
  <g transform="translate(1148,155)">
    <g filter="url(#sh)">
      <rect x="8" y="5" width="75" height="95" rx="6" fill="#fff" stroke="#cbd5e1" stroke-width="2"/>
      <line x1="22" y1="28" x2="68" y2="28" stroke="#e2e8f0" stroke-width="2.5"/>
      <line x1="22" y1="42" x2="62" y2="42" stroke="#e2e8f0" stroke-width="2.5"/>
      <line x1="22" y1="56" x2="66" y2="56" stroke="#e2e8f0" stroke-width="2.5"/>
      <rect x="22" y="68" width="11" height="22" fill="#3b82f6" rx="1.5"/>
      <rect x="37" y="62" width="11" height="28" fill="#8b5cf6" rx="1.5"/>
      <rect x="52" y="66" width="11" height="24" fill="#22c55e" rx="1.5"/>
    </g>
  </g>
  <text x="1190" y="278" text-anchor="middle" font-size="18" font-weight="700" fill="#1e293b">Reports</text>
  <text x="1190" y="302" text-anchor="middle" font-size="13" fill="#64748b">JSON · ROC curves</text>

  <!-- Model artifact label -->
  <rect x="720" y="470" width="170" height="32" rx="6" fill="#f1f5f9" stroke="#e2e8f0" stroke-width="1"/>
  <text x="805" y="492" text-anchor="middle" font-size="13" font-weight="600" fill="#64748b">models/trained/*.pkl</text>

  <!-- DASHED: models loaded at runtime -->
  <path d="M805,505 L805,570 L380,570 L380,605" stroke="#8b5cf6" stroke-width="2" stroke-dasharray="8,5" fill="none" marker-end="url(#arr)"/>
  <text x="590" y="562" text-anchor="middle" font-size="13" fill="#8b5cf6" font-style="italic">Trained models loaded at runtime</text>

  <!-- ═══════════════════════════════════════════════════════════════════════ -->
  <!-- ROW 2: REAL-TIME DETECTION -->
  <!-- ═══════════════════════════════════════════════════════════════════════ -->
  <rect x="80" y="600" width="1340" height="36" rx="6" fill="#f1f5f9"/>
  <text x="100" y="624" font-size="15" font-weight="700" fill="#475569" letter-spacing="2">REAL-TIME DETECTION PIPELINE</text>

  <!-- ──────────── 8. Globe / Live Traffic ──────────── -->
  <g transform="translate(100,645)">
    <g filter="url(#sh)">
      <circle cx="55" cy="42" r="40" fill="#dbeafe" stroke="#3b82f6" stroke-width="2.5"/>
      <ellipse cx="55" cy="42" rx="20" ry="40" fill="none" stroke="#93c5fd" stroke-width="1.2"/>
      <line x1="15" y1="32" x2="95" y2="32" stroke="#93c5fd" stroke-width="1.2"/>
      <line x1="15" y1="52" x2="95" y2="52" stroke="#93c5fd" stroke-width="1.2"/>
      <circle cx="38" cy="30" r="5" fill="#3b82f6"/>
      <circle cx="68" cy="38" r="5" fill="#3b82f6"/>
      <circle cx="50" cy="55" r="5" fill="#3b82f6"/>
      <circle cx="74" cy="52" r="4" fill="#60a5fa"/>
    </g>
  </g>
  <text x="155" y="740" text-anchor="middle" font-size="18" font-weight="700" fill="#1e293b">Live Traffic</text>
  <text x="155" y="764" text-anchor="middle" font-size="13" fill="#64748b">StreamSimulator</text>
  <text x="155" y="786" text-anchor="middle" font-size="13" fill="#64748b">Row-by-row · 100x replay</text>

  <!-- Arrow 8→9 -->
  <line x1="215" y1="700" x2="290" y2="700" stroke="#94a3b8" stroke-width="2.5" marker-end="url(#arr)"/>

  <!-- ──────────── 9. Stacked Layers / MicroBatch ──────────── -->
  <g transform="translate(302,652)">
    <g filter="url(#sh)">
      <rect x="10" y="8" width="95" height="20" rx="5" fill="#86efac" stroke="#22c55e" stroke-width="1.5"/>
      <rect x="5" y="34" width="100" height="20" rx="5" fill="#4ade80" stroke="#22c55e" stroke-width="1.5"/>
      <rect x="12" y="60" width="90" height="20" rx="5" fill="#22c55e" stroke="#16a34a" stroke-width="1.5"/>
      <path d="M115,30 L130,42 L115,54" stroke="#16a34a" stroke-width="3" fill="none" stroke-linecap="round" stroke-linejoin="round"/>
    </g>
  </g>
  <text x="362" y="748" text-anchor="middle" font-size="18" font-weight="700" fill="#1e293b">MicroBatch</text>
  <text x="362" y="772" text-anchor="middle" font-size="13" fill="#64748b">32-sample batches</text>

  <!-- Arrow 9→10 -->
  <line x1="440" y1="700" x2="520" y2="700" stroke="#94a3b8" stroke-width="2.5" marker-end="url(#arr)"/>

  <!-- ──────────── 10. Shield / DetectionEngine ──────────── -->
  <g transform="translate(532,638)">
    <g filter="url(#sh)">
      <path d="M60,8 L112,28 L112,64 Q112,94 60,108 Q8,94 8,64 L8,28 Z" fill="#fecaca" stroke="#dc2626" stroke-width="3"/>
      <path d="M60,24 L98,38 L98,62 Q98,86 60,96 Q22,86 22,62 L22,38 Z" fill="#fca5a5"/>
      <path d="M40,58 L54,72 L80,36" stroke="#fff" stroke-width="6" fill="none" stroke-linecap="round" stroke-linejoin="round"/>
    </g>
  </g>
  <text x="592" y="776" text-anchor="middle" font-size="18" font-weight="700" fill="#1e293b">DetectionEngine</text>
  <text x="592" y="800" text-anchor="middle" font-size="13" fill="#64748b">IF anomaly → RF classify</text>
  <text x="592" y="822" text-anchor="middle" font-size="13" fill="#64748b">Severity · Zero-day boost</text>

  <!-- Arrow 10→11 -->
  <line x1="670" y1="700" x2="745" y2="700" stroke="#94a3b8" stroke-width="2.5" marker-end="url(#arr)"/>

  <!-- ──────────── 11. Bell / AlertManager ──────────── -->
  <g transform="translate(758,648)">
    <g filter="url(#sh)">
      <path d="M48,72 Q48,22 65,12 Q82,22 82,72 Z" fill="#fed7aa" stroke="#f97316" stroke-width="2.5"/>
      <rect x="40" y="69" width="50" height="8" rx="4" fill="#fb923c"/>
      <circle cx="65" cy="84" r="7" fill="#ea580c"/>
      <path d="M90,40 Q100,30 95,18" stroke="#fb923c" stroke-width="2.5" fill="none" stroke-linecap="round"/>
      <path d="M97,48 Q108,35 103,20" stroke="#fb923c" stroke-width="2" fill="none" stroke-linecap="round"/>
    </g>
  </g>
  <text x="823" y="760" text-anchor="middle" font-size="18" font-weight="700" fill="#1e293b">AlertManager</text>
  <text x="823" y="784" text-anchor="middle" font-size="13" fill="#64748b">Generate · Route · Throttle</text>
  <text x="823" y="806" text-anchor="middle" font-size="12" fill="#ea580c" font-weight="600">60 alerts/min cap</text>

  <!-- Arrow 11→12 -->
  <line x1="898" y1="700" x2="980" y2="700" stroke="#16a34a" stroke-width="2.5" marker-end="url(#arrG)"/>

  <!-- ──────────── 12. Monitor / Dashboard ──────────── -->
  <g transform="translate(992,638)">
    <g filter="url(#sh)">
      <rect x="70" y="86" width="26" height="14" fill="#94a3b8"/>
      <rect x="56" y="98" width="54" height="7" rx="3" fill="#64748b"/>
      <rect x="5" y="5" width="160" height="86" rx="7" fill="#1e293b" stroke="#475569" stroke-width="2.5"/>
      <rect x="12" y="12" width="146" height="16" rx="2" fill="#334155"/>
      <rect x="12" y="36" width="44" height="24" rx="3" fill="#0d9488"/>
      <rect x="60" y="36" width="44" height="24" rx="3" fill="#2563eb"/>
      <rect x="108" y="36" width="44" height="24" rx="3" fill="#7c3aed"/>
      <polyline points="12,78 40,70 68,74 96,64 124,66 152,58" stroke="#22c55e" stroke-width="2.5" fill="none"/>
      <polyline points="12,82 40,76 68,78 96,72 124,74 152,68" stroke="#f97316" stroke-width="1.5" fill="none" stroke-dasharray="5,3"/>
    </g>
  </g>
  <text x="1072" y="768" text-anchor="middle" font-size="18" font-weight="700" fill="#1e293b">Streamlit Dashboard</text>
  <text x="1072" y="792" text-anchor="middle" font-size="13" fill="#64748b">ZION-TECH · Real-time UI</text>
  <text x="1072" y="814" text-anchor="middle" font-size="13" fill="#64748b">Overview · Alerts · Metrics</text>

  <!-- Output labels -->
  <g transform="translate(740,840)">
    <rect x="0" y="0" width="100" height="32" rx="6" fill="#fecaca" filter="url(#sh)"/>
    <text x="50" y="21" text-anchor="middle" font-size="14" font-weight="700" fill="#991b1b">alerts.json</text>
    <rect x="115" y="0" width="95" height="32" rx="6" fill="#fecaca" filter="url(#sh)"/>
    <text x="162" y="21" text-anchor="middle" font-size="14" font-weight="700" fill="#991b1b">alerts.csv</text>
  </g>

  <!-- ═══════════════════════ LEGEND ═══════════════════════ -->
  <rect x="80" y="895" width="1340" height="55" rx="8" fill="#fff" stroke="#e2e8f0" stroke-width="1"/>
  <text x="110" y="930" font-size="14" font-weight="800" fill="#1e293b" letter-spacing="1">LEGEND</text>

  <circle cx="210" cy="923" r="8" fill="#3b82f6"/>
  <text x="225" y="928" font-size="13" font-weight="700" fill="#475569">Data Source</text>

  <rect x="315" y="915" width="16" height="16" rx="4" fill="#22c55e"/>
  <text x="337" y="928" font-size="13" font-weight="700" fill="#475569">Preprocessing</text>

  <rect x="450" y="915" width="16" height="16" rx="4" fill="#8b5cf6"/>
  <text x="472" y="928" font-size="13" font-weight="700" fill="#475569">ML Model</text>

  <path d="M558,915 L566,910 L574,915 L574,931 L558,931 Z" fill="#dc2626"/>
  <text x="582" y="928" font-size="13" font-weight="700" fill="#475569">Detection</text>

  <circle cx="660" cy="923" r="8" fill="#f97316"/>
  <text x="675" y="928" font-size="13" font-weight="700" fill="#475569">Alerts</text>

  <rect x="730" y="915" width="16" height="16" rx="4" fill="#16a34a"/>
  <text x="752" y="928" font-size="13" font-weight="700" fill="#475569">Output</text>

  <line x1="820" y1="923" x2="868" y2="923" stroke="#94a3b8" stroke-width="2.5" marker-end="url(#arr)"/>
  <text x="878" y="928" font-size="13" font-weight="700" fill="#475569">Data flow</text>

  <line x1="960" y1="923" x2="1008" y2="923" stroke="#8b5cf6" stroke-width="2" stroke-dasharray="8,5" marker-end="url(#arr)"/>
  <text x="1018" y="928" font-size="13" font-weight="700" fill="#475569">Model load</text>

  <!-- ═══════════════════════ KEY METRICS BAR ═══════════════════════ -->
  <rect x="80" y="960" width="1340" height="44" rx="8" fill="#1e293b"/>
  <text x="110" y="989" font-size="14" font-weight="800" fill="#e2e8f0" letter-spacing="1">PERFORMANCE</text>

  <rect x="260" y="970" width="145" height="26" rx="13" fill="#065f46"/>
  <text x="332" y="989" text-anchor="middle" font-size="13" font-weight="700" fill="#6ee7b7">Accuracy 95.8%</text>

  <rect x="420" y="970" width="125" height="26" rx="13" fill="#1e3a5f"/>
  <text x="482" y="989" text-anchor="middle" font-size="13" font-weight="700" fill="#93c5fd">F1 93.4%</text>

  <rect x="560" y="970" width="180" height="26" rx="13" fill="#4c1d95"/>
  <text x="650" y="989" text-anchor="middle" font-size="13" font-weight="700" fill="#c4b5fd">Zero-day Recall 81.1%</text>

  <rect x="755" y="970" width="125" height="26" rx="13" fill="#7c2d12"/>
  <text x="817" y="989" text-anchor="middle" font-size="13" font-weight="700" fill="#fdba74">Latency 42ms</text>

  <rect x="895" y="970" width="175" height="26" rx="13" fill="#065f46"/>
  <text x="982" y="989" text-anchor="middle" font-size="13" font-weight="700" fill="#6ee7b7">Throughput 1,247/s</text>

  <rect x="1085" y="970" width="110" height="26" rx="13" fill="#1e3a5f"/>
  <text x="1140" y="989" text-anchor="middle" font-size="13" font-weight="700" fill="#93c5fd">FPR &lt; 5%</text>

  <!-- ═══════════════════════ FOOTER ═══════════════════════ -->
  <rect x="80" y="1012" width="1340" height="30" rx="6" fill="#fff" stroke="#e2e8f0" stroke-width="1"/>
  <text x="800" y="1033" text-anchor="middle" font-size="14" font-weight="800" fill="#1e293b">Zion Clifford CYS/20/4940 · Prof. Alowolodu · FUTA · 2026</text>
</svg>