<?xml version="1.0" encoding="UTF-8"?>
<svg xmlns="http://www.w3.org/2000/svg" viewBox="0 0 1050 1480" font-family="'Segoe UI',system-ui,-apple-system,sans-serif">
  <defs>
    <filter id="ds" x="-3%" y="-3%" width="106%" height="110%">
      <feDropShadow dx="0" dy="2" stdDeviation="4" flood-opacity="0.12"/>
    </filter>
    <filter id="dsStrong" x="-4%" y="-4%" width="108%" height="114%">
      <feDropShadow dx="0" dy="3" stdDeviation="6" flood-opacity="0.18"/>
    </filter>
    <linearGradient id="titleBg" x1="0" y1="0" x2="1" y2="1">
      <stop offset="0%" stop-color="#0f172a"/>
      <stop offset="100%" stop-color="#1e293b"/>
    </linearGradient>
    <linearGradient id="dataBg" x1="0" y1="0" x2="0" y2="1">
      <stop offset="0%" stop-color="#e0f2fe"/>
      <stop offset="100%" stop-color="#bae6fd"/>
    </linearGradient>
    <linearGradient id="procBg" x1="0" y1="0" x2="0" y2="1">
      <stop offset="0%" stop-color="#dcfce7"/>
      <stop offset="100%" stop-color="#bbf7d0"/>
    </linearGradient>
    <linearGradient id="mlBg" x1="0" y1="0" x2="0" y2="1">
      <stop offset="0%" stop-color="#ede9fe"/>
      <stop offset="100%" stop-color="#ddd6fe"/>
    </linearGradient>
    <linearGradient id="engBg" x1="0" y1="0" x2="0" y2="1">
      <stop offset="0%" stop-color="#fef2f2"/>
      <stop offset="100%" stop-color="#fecaca"/>
    </linearGradient>
    <linearGradient id="outBg" x1="0" y1="0" x2="0" y2="1">
      <stop offset="0%" stop-color="#fff7ed"/>
      <stop offset="100%" stop-color="#fed7aa"/>
    </linearGradient>
    <linearGradient id="dashBg" x1="0" y1="0" x2="0" y2="1">
      <stop offset="0%" stop-color="#f0f9ff"/>
      <stop offset="100%" stop-color="#bae6fd"/>
    </linearGradient>
    <marker id="a" viewBox="0 0 10 6" refX="9" refY="3" markerWidth="10" markerHeight="6" orient="auto-start-reverse">
      <path d="M0,0 L10,3 L0,6 Z" fill="#475569"/>
    </marker>
    <marker id="aLight" viewBox="0 0 10 6" refX="9" refY="3" markerWidth="10" markerHeight="6" orient="auto-start-reverse">
      <path d="M0,0 L10,3 L0,6 Z" fill="#94a3b8"/>
    </marker>
  </defs>

  <!-- Page background -->
  <rect width="1050" height="1480" fill="#ffffff"/>

  <!-- ═══════════ HEADER ═══════════ -->
  <rect x="0" y="0" width="1050" height="110" fill="url(#titleBg)"/>
  <text x="525" y="48" text-anchor="middle" font-size="30" font-weight="800" fill="#ffffff" letter-spacing="0.8">System Architecture</text>
  <text x="525" y="74" text-anchor="middle" font-size="14" font-weight="400" fill="#94a3b8" letter-spacing="0.3">Real-Time Autonomous Zero-Day DoS Detection Engine</text>
  <text x="525" y="96" text-anchor="middle" font-size="10" fill="#64748b">Isolation Forest + Random Forest · CICIDS2017 · Streamlit Dashboard</text>

  <!-- ═══════════ SECTION: DATA SOURCE ═══════════ -->
  <rect x="40" y="140" width="180" height="28" rx="6" fill="#0f172a"/>
  <text x="130" y="159" text-anchor="middle" font-size="11" font-weight="700" fill="#ffffff" letter-spacing="1.2">DATA SOURCE</text>

  <rect x="40" y="180" width="970" height="100" rx="12" fill="url(#dataBg)" stroke="#38bdf8" stroke-width="2" filter="url(#dsStrong)"/>
  <text x="525" y="215" text-anchor="middle" font-size="18" font-weight="800" fill="#0c4a6e">CICIDS2017 Network Traffic Dataset</text>
  <text x="525" y="238" text-anchor="middle" font-size="12" fill="#0369a1">Wednesday-workingHours.pcap_ISCX.csv</text>
  <line x1="200" y1="252" x2="850" y2="252" stroke="#7dd3fc" stroke-width="0.8"/>
  <text x="525" y="270" text-anchor="middle" font-size="11" fill="#0284c7">693,270 flows  ·  84 raw features  ·  6 attack classes  ·  844 MB total</text>

  <!-- ═══════════ SECTION: PREPROCESSING ═══════════ -->
  <rect x="40" y="310" width="260" height="28" rx="6" fill="#0f172a"/>
  <text x="170" y="329" text-anchor="middle" font-size="11" font-weight="700" fill="#ffffff" letter-spacing="1.2">PREPROCESSING PIPELINE</text>

  <!-- 5 Stage cards -->
  <rect x="40" y="350" width="178" height="120" rx="10" fill="url(#procBg)" stroke="#4ade80" stroke-width="1.8" filter="url(#ds)"/>
  <rect x="40" y="350" width="178" height="28" rx="10" fill="#166534"/>
  <text x="129" y="369" text-anchor="middle" font-size="10" font-weight="700" fill="#ffffff">1 · CLEAN</text>
  <text x="129" y="396" text-anchor="middle" font-size="9.5" fill="#166534" font-weight="600">Drop NaN rows/cols</text>
  <text x="129" y="412" text-anchor="middle" font-size="9.5" fill="#166534" font-weight="600">Remove infinities</text>
  <text x="129" y="428" text-anchor="middle" font-size="9.5" fill="#166534" font-weight="600">Drop duplicates</text>
  <text x="129" y="450" text-anchor="middle" font-size="8" fill="#22c55e">693K → 641K rows</text>

  <rect x="234" y="350" width="178" height="120" rx="10" fill="url(#procBg)" stroke="#4ade80" stroke-width="1.8" filter="url(#ds)"/>
  <rect x="234" y="350" width="178" height="28" rx="10" fill="#166534"/>
  <text x="323" y="369" text-anchor="middle" font-size="10" font-weight="700" fill="#ffffff">2 · LABEL</text>
  <text x="323" y="396" text-anchor="middle" font-size="9.5" fill="#166534" font-weight="600">String → integer encoding</text>
  <text x="323" y="412" text-anchor="middle" font-size="9.5" fill="#166534" font-weight="600">Binary: BENIGN=0 / Attack=1</text>
  <text x="323" y="428" text-anchor="middle" font-size="9.5" fill="#166534" font-weight="600">Multi-class: 6 labels</text>
  <text x="323" y="450" text-anchor="middle" font-size="8" fill="#22c55e">LabelEncoder.fit_transform</text>

  <rect x="428" y="350" width="178" height="120" rx="10" fill="url(#procBg)" stroke="#4ade80" stroke-width="1.8" filter="url(#ds)"/>
  <rect x="428" y="350" width="178" height="28" rx="10" fill="#166534"/>
  <text x="517" y="369" text-anchor="middle" font-size="10" font-weight="700" fill="#ffffff">3 · SCALE</text>
  <text x="517" y="396" text-anchor="middle" font-size="9.5" fill="#166534" font-weight="600">StandardScaler</text>
  <text x="517" y="412" text-anchor="middle" font-size="9.5" fill="#166534" font-weight="600">μ = 0, σ = 1</text>
  <text x="517" y="428" text-anchor="middle" font-size="9.5" fill="#166534" font-weight="600">fit on train only</text>
  <text x="517" y="450" text-anchor="middle" font-size="8" fill="#22c55e">transform test/real-time</text>

  <rect x="622" y="350" width="178" height="120" rx="10" fill="url(#procBg)" stroke="#4ade80" stroke-width="1.8" filter="url(#ds)"/>
  <rect x="622" y="350" width="178" height="28" rx="10" fill="#166534"/>
  <text x="711" y="369" text-anchor="middle" font-size="10" font-weight="700" fill="#ffffff">4 · SELECT</text>
  <text x="711" y="396" text-anchor="middle" font-size="9.5" fill="#166534" font-weight="600">Correlation analysis</text>
  <text x="711" y="412" text-anchor="middle" font-size="9.5" fill="#166534" font-weight="600">Mutual information</text>
  <text x="711" y="428" text-anchor="middle" font-size="9.5" fill="#166534" font-weight="600">Variance threshold</text>
  <text x="711" y="450" text-anchor="middle" font-size="8" fill="#22c55e">84 → 30 features (64%)</text>

  <rect x="816" y="350" width="194" height="120" rx="10" fill="url(#procBg)" stroke="#4ade80" stroke-width="1.8" filter="url(#ds)"/>
  <rect x="816" y="350" width="194" height="28" rx="10" fill="#166534"/>
  <text x="913" y="369" text-anchor="middle" font-size="10" font-weight="700" fill="#ffffff">5 · SPLIT</text>
  <text x="913" y="396" text-anchor="middle" font-size="9.5" fill="#166534" font-weight="600">Train / Test partition</text>
  <text x="913" y="412" text-anchor="middle" font-size="9.5" fill="#166534" font-weight="600">80% train · 20% test</text>
  <text x="913" y="428" text-anchor="middle" font-size="9.5" fill="#166534" font-weight="600">Stratified by class</text>
  <text x="913" y="450" text-anchor="middle" font-size="8" fill="#22c55e">preserve class distribution</text>

  <!-- Arrows between stages -->
  <line x1="223" y1="410" x2="229" y2="410" stroke="#475569" stroke-width="2" marker-end="url(#a)"/>
  <line x1="417" y1="410" x2="423" y2="410" stroke="#475569" stroke-width="2" marker-end="url(#a)"/>
  <line x1="611" y1="410" x2="617" y2="410" stroke="#475569" stroke-width="2" marker-end="url(#a)"/>
  <line x1="805" y1="410" x2="811" y2="410" stroke="#475569" stroke-width="2" marker-end="url(#a)"/>

  <!-- ═══════════ SECTION: ML MODELS ═══════════ -->
  <rect x="40" y="500" width="310" height="28" rx="6" fill="#0f172a"/>
  <text x="195" y="519" text-anchor="middle" font-size="11" font-weight="700" fill="#ffffff" letter-spacing="1.2">MACHINE LEARNING MODELS</text>

  <!-- Isolation Forest -->
  <rect x="40" y="540" width="470" height="160" rx="12" fill="url(#mlBg)" stroke="#a78bfa" stroke-width="2" filter="url(#dsStrong)"/>
  <rect x="40" y="540" width="470" height="36" rx="12" fill="#6d28d9"/>
  <text x="275" y="564" text-anchor="middle" font-size="15" font-weight="800" fill="#ffffff">ISOLATION FOREST</text>
  <text x="275" y="600" text-anchor="middle" font-size="11" fill="#7c3aed" font-weight="600">Anomaly Detection · Unsupervised</text>
  <line x1="70" y1="612" x2="480" y2="612" stroke="#c4b5fd" stroke-width="0.8"/>
  <text x="275" y="630" text-anchor="middle" font-size="10" fill="#6d28d9">200 estimators  ·  contamination = 0.1</text>
  <text x="275" y="648" text-anchor="middle" font-size="10" fill="#6d28d9">Threshold: 95th percentile of anomaly scores</text>
  <text x="275" y="666" text-anchor="middle" font-size="10" fill="#6d28d9">Binary output: normal (0) / anomaly (1)</text>
  <text x="275" y="688" text-anchor="middle" font-size="10" font-weight="700" fill="#166534">Accuracy: 94.1%  ·  ROC-AUC: 0.953</text>

  <!-- Random Forest -->
  <rect x="540" y="540" width="470" height="160" rx="12" fill="url(#mlBg)" stroke="#a78bfa" stroke-width="2" filter="url(#dsStrong)"/>
  <rect x="540" y="540" width="470" height="36" rx="12" fill="#6d28d9"/>
  <text x="775" y="564" text-anchor="middle" font-size="15" font-weight="800" fill="#ffffff">RANDOM FOREST</text>
  <text x="775" y="600" text-anchor="middle" font-size="11" fill="#7c3aed" font-weight="600">Multi-class Classification · Supervised</text>
  <line x1="570" y1="612" x2="980" y2="612" stroke="#c4b5fd" stroke-width="0.8"/>
  <text x="775" y="630" text-anchor="middle" font-size="10" fill="#6d28d9">150 estimators  ·  max_depth = 20  ·  balanced</text>
  <text x="775" y="648" text-anchor="middle" font-size="10" fill="#6d28d9">Gini impurity  ·  6-class softmax output</text>
  <text x="775" y="666" text-anchor="middle" font-size="10" fill="#6d28d9">Input: 30 selected features from preprocessing</text>
  <text x="775" y="688" text-anchor="middle" font-size="10" font-weight="700" fill="#166534">Accuracy: 95.8%  ·  Macro F1: 93.4%</text>

  <!-- Arrow between IF and RF -->
  <line x1="515" y1="620" x2="535" y2="620" stroke="#475569" stroke-width="2.5" marker-end="url(#a)"/>
  <text x="525" y="612" text-anchor="middle" font-size="8" fill="#64748b" font-weight="600">feeds</text>

  <!-- ═══════════ SECTION: DETECTION ENGINE ═══════════ -->
  <rect x="40" y="730" width="280" height="28" rx="6" fill="#0f172a"/>
  <text x="180" y="749" text-anchor="middle" font-size="11" font-weight="700" fill="#ffffff" letter-spacing="1.2">DETECTION ENGINE</text>

  <rect x="40" y="770" width="970" height="170" rx="12" fill="url(#engBg)" stroke="#f87171" stroke-width="2" filter="url(#dsStrong)"/>
  <rect x="40" y="770" width="970" height="36" rx="12" fill="#dc2626"/>
  <text x="525" y="794" text-anchor="middle" font-size="15" font-weight="800" fill="#ffffff">TWO-STAGE DETECTION PIPELINE</text>

  <!-- Stage 1 -->
  <rect x="70" y="820" width="260" height="100" rx="8" fill="#ffffff" stroke="#fecaca" stroke-width="1.5"/>
  <rect x="70" y="820" width="260" height="24" rx="8" fill="#fee2e2"/>
  <text x="200" y="837" text-anchor="middle" font-size="10" font-weight="700" fill="#991b1b">STAGE 1: ANOMALY SCORING</text>
  <text x="200" y="860" text-anchor="middle" font-size="9.5" fill="#b91c1c">Isolation Forest scores each flow</text>
  <text x="200" y="876" text-anchor="middle" font-size="9.5" fill="#b91c1c">Anomaly score ≥ threshold → flag</text>
  <text x="200" y="892" text-anchor="middle" font-size="9.5" fill="#b91c1c">Filter out known-normal traffic</text>
  <text x="200" y="908" text-anchor="middle" font-size="8" fill="#ef4444" font-weight="600">Speed: 16,445 samples/s</text>

  <!-- Arrow 1→2 -->
  <line x1="340" y1="870" x2="390" y2="870" stroke="#475569" stroke-width="2.5" marker-end="url(#a)"/>

  <!-- Stage 2 -->
  <rect x="400" y="820" width="260" height="100" rx="8" fill="#ffffff" stroke="#fecaca" stroke-width="1.5"/>
  <rect x="400" y="820" width="260" height="24" rx="8" fill="#fee2e2"/>
  <text x="530" y="837" text-anchor="middle" font-size="10" font-weight="700" fill="#991b1b">STAGE 2: CLASSIFICATION</text>
  <text x="530" y="860" text-anchor="middle" font-size="9.5" fill="#b91c1c">Random Forest classifies anomaly</text>
  <text x="530" y="876" text-anchor="middle" font-size="9.5" fill="#b91c1c">6-class softmax probabilities</text>
  <text x="530" y="892" text-anchor="middle" font-size="9.5" fill="#b91c1c">Confidence threshold: 0.85</text>
  <text x="530" y="908" text-anchor="middle" font-size="8" fill="#ef4444" font-weight="600">Speed: 7,199 samples/s</text>

  <!-- Arrow 2→3 -->
  <line x1="665" y1="870" x2="715" y2="870" stroke="#475569" stroke-width="2.5" marker-end="url(#a)"/>

  <!-- Stage 3 -->
  <rect x="720" y="820" width="260" height="100" rx="8" fill="#ffffff" stroke="#fecaca" stroke-width="1.5"/>
  <rect x="720" y="820" width="260" height="24" rx="8" fill="#fee2e2"/>
  <text x="850" y="837" text-anchor="middle" font-size="10" font-weight="700" fill="#991b1b">STAGE 3: SEVERITY &amp; ALERT</text>
  <text x="850" y="860" text-anchor="middle" font-size="9.5" fill="#b91c1c">Severity: Critical ≥0.9 · High ≥0.7</text>
  <text x="850" y="876" text-anchor="middle" font-size="9.5" fill="#b91c1c">Medium ≥0.5 · Low &lt;0.5</text>
  <text x="850" y="892" text-anchor="middle" font-size="9.5" fill="#b91c1c">Zero-day boost: +0.2 if RF low conf</text>
  <text x="850" y="908" text-anchor="middle" font-size="8" fill="#ef4444" font-weight="600">End-to-end: 42ms latency</text>

  <!-- ═══════════ SECTION: STREAMING PIPELINE ═══════════ -->
  <rect x="40" y="970" width="280" height="28" rx="6" fill="#0f172a"/>
  <text x="180" y="989" text-anchor="middle" font-size="11" font-weight="700" fill="#ffffff" letter-spacing="1.2">REAL-TIME STREAMING</text>

  <rect x="40" y="1010" width="970" height="110" rx="12" fill="url(#outBg)" stroke="#fb923c" stroke-width="2" filter="url(#ds)"/>

  <!-- Stream Simulator -->
  <rect x="70" y="1025" width="190" height="80" rx="8" fill="#ffffff" stroke="#fed7aa" stroke-width="1.2"/>
  <text x="165" y="1050" text-anchor="middle" font-size="11" font-weight="700" fill="#c2410c">Stream Simulator</text>
  <text x="165" y="1066" text-anchor="middle" font-size="9" fill="#ea580c">Row-by-row replay</text>
  <text x="165" y="1080" text-anchor="middle" font-size="9" fill="#ea580c">100× speed · CSV / PCAP</text>
  <text x="165" y="1094" text-anchor="middle" font-size="8" fill="#f97316" font-weight="600">StreamSimulator class</text>

  <line x1="265" y1="1065" x2="300" y2="1065" stroke="#475569" stroke-width="2" marker-end="url(#a)"/>

  <!-- Micro-Batch -->
  <rect x="305" y="1025" width="190" height="80" rx="8" fill="#ffffff" stroke="#fed7aa" stroke-width="1.2"/>
  <text x="400" y="1050" text-anchor="middle" font-size="11" font-weight="700" fill="#c2410c">Micro-Batch Processor</text>
  <text x="400" y="1066" text-anchor="middle" font-size="9" fill="#ea580c">Batch size: 32 samples</text>
  <text x="400" y="1080" text-anchor="middle" font-size="9" fill="#ea580c">Timeout: 100ms</text>
  <text x="400" y="1094" text-anchor="middle" font-size="8" fill="#f97316" font-weight="600">MicroBatchProcessor class</text>

  <line x1="500" y1="1065" x2="535" y2="1065" stroke="#475569" stroke-width="2" marker-end="url(#a)"/>

  <!-- Detection Orchestrator -->
  <rect x="540" y="1025" width="190" height="80" rx="8" fill="#ffffff" stroke="#fed7aa" stroke-width="1.2"/>
  <text x="635" y="1050" text-anchor="middle" font-size="11" font-weight="700" fill="#c2410c">Orchestrator</text>
  <text x="635" y="1066" text-anchor="middle" font-size="9" fill="#ea580c">DetectionOrchestrator</text>
  <text x="635" y="1080" text-anchor="middle" font-size="9" fill="#ea580c">IF → RF → Severity → Alert</text>
  <text x="635" y="1094" text-anchor="middle" font-size="8" fill="#f97316" font-weight="600">1,247 flows/s throughput</text>

  <line x1="735" y1="1065" x2="770" y2="1065" stroke="#475569" stroke-width="2" marker-end="url(#a)"/>

  <!-- Alert Logger -->
  <rect x="775" y="1025" width="190" height="80" rx="8" fill="#ffffff" stroke="#fed7aa" stroke-width="1.2"/>
  <text x="870" y="1050" text-anchor="middle" font-size="11" font-weight="700" fill="#c2410c">Alert Logger</text>
  <text x="870" y="1066" text-anchor="middle" font-size="9" fill="#ea580c">JSONL + CSV output</text>
  <text x="870" y="1080" text-anchor="middle" font-size="9" fill="#ea580c">Rate limit: 60 alerts/min</text>
  <text x="870" y="1094" text-anchor="middle" font-size="8" fill="#f97316" font-weight="600">AlertLogger + AlertGenerator</text>

  <!-- ═══════════ SECTION: OUTPUT ═══════════ -->
  <rect x="40" y="1150" width="200" height="28" rx="6" fill="#0f172a"/>
  <text x="140" y="1169" text-anchor="middle" font-size="11" font-weight="700" fill="#ffffff" letter-spacing="1.2">OUTPUT &amp; MONITORING</text>

  <rect x="40" y="1190" width="310" height="90" rx="10" fill="url(#dashBg)" stroke="#38bdf8" stroke-width="2" filter="url(#ds)"/>
  <text x="195" y="1222" text-anchor="middle" font-size="14" font-weight="800" fill="#0c4a6e">Streamlit Dashboard</text>
  <text x="195" y="1240" text-anchor="middle" font-size="10" fill="#0369a1">5 pages · Real-time · Tactical HUD theme</text>
  <text x="195" y="1258" text-anchor="middle" font-size="9" fill="#0284c7">Overview · Alerts · Metrics · Models · App</text>
  <text x="195" y="1272" text-anchor="middle" font-size="8" fill="#0ea5e9" font-weight="600">port 8501</text>

  <rect x="370" y="1190" width="310" height="90" rx="10" fill="url(#dashBg)" stroke="#38bdf8" stroke-width="2" filter="url(#ds)"/>
  <text x="525" y="1222" text-anchor="middle" font-size="14" font-weight="800" fill="#0c4a6e">Evaluation Reports</text>
  <text x="525" y="1240" text-anchor="middle" font-size="10" fill="#0369a1">Accuracy · F1 · ROC-AUC · Confusion Matrix</text>
  <text x="525" y="1258" text-anchor="middle" font-size="9" fill="#0284c7">JSON export · Per-class breakdown</text>
  <text x="525" y="1272" text-anchor="middle" font-size="8" fill="#0ea5e9" font-weight="600">reports/evaluation_*.json</text>

  <rect x="700" y="1190" width="310" height="90" rx="10" fill="url(#dashBg)" stroke="#38bdf8" stroke-width="2" filter="url(#ds)"/>
  <text x="855" y="1222" text-anchor="middle" font-size="14" font-weight="800" fill="#0c4a6e">Alert Logs</text>
  <text x="855" y="1240" text-anchor="middle" font-size="10" fill="#0369a1">JSONL + CSV · Date-rotated files</text>
  <text x="855" y="1258" text-anchor="middle" font-size="9" fill="#0284c7">Severity filtering · Rate limiting</text>
  <text x="855" y="1272" text-anchor="middle" font-size="8" fill="#0ea5e9" font-weight="600">logs/alerts/*.jsonl</text>

  <!-- Arrows from streaming to output -->
  <line x1="195" y1="1120" x2="195" y2="1185" stroke="#94a3b8" stroke-width="1.5" stroke-dasharray="5,3" marker-end="url(#aLight)"/>
  <line x1="525" y1="1120" x2="525" y2="1185" stroke="#94a3b8" stroke-width="1.5" stroke-dasharray="5,3" marker-end="url(#aLight)"/>
  <line x1="855" y1="1120" x2="855" y2="1185" stroke="#94a3b8" stroke-width="1.5" stroke-dasharray="5,3" marker-end="url(#aLight)"/>

  <!-- ═══════════ KEY METRICS BAR ═══════════ -->
  <rect x="40" y="1310" width="970" height="70" rx="10" fill="#0f172a" filter="url(#dsStrong)"/>
  <text x="525" y="1336" text-anchor="middle" font-size="11" font-weight="700" fill="#94a3b8" letter-spacing="1.5">KEY PERFORMANCE METRICS</text>

  <line x1="160" y1="1345" x2="160" y2="1370" stroke="#334155" stroke-width="0.8"/>
  <text x="220" y="1358" text-anchor="middle" font-size="16" font-weight="800" fill="#4ade80">95.8%</text>
  <text x="220" y="1372" text-anchor="middle" font-size="8" fill="#64748b">RF Accuracy</text>

  <line x1="300" y1="1345" x2="300" y2="1370" stroke="#334155" stroke-width="0.8"/>
  <text x="365" y="1358" text-anchor="middle" font-size="16" font-weight="800" fill="#a78bfa">93.4%</text>
  <text x="365" y="1372" text-anchor="middle" font-size="8" fill="#64748b">Macro F1</text>

  <line x1="430" y1="1345" x2="430" y2="1370" stroke="#334155" stroke-width="0.8"/>
  <text x="495" y="1358" text-anchor="middle" font-size="16" font-weight="800" fill="#f87171">81.1%</text>
  <text x="495" y="1372" text-anchor="middle" font-size="8" fill="#64748b">Zero-day Recall</text>

  <line x1="560" y1="1345" x2="560" y2="1370" stroke="#334155" stroke-width="0.8"/>
  <text x="625" y="1358" text-anchor="middle" font-size="16" font-weight="800" fill="#fb923c">42ms</text>
  <text x="625" y="1372" text-anchor="middle" font-size="8" fill="#64748b">Latency</text>

  <line x1="690" y1="1345" x2="690" y2="1370" stroke="#334155" stroke-width="0.8"/>
  <text x="755" y="1358" text-anchor="middle" font-size="16" font-weight="800" fill="#38bdf8">1,247</text>
  <text x="755" y="1372" text-anchor="middle" font-size="8" fill="#64748b">flows/s</text>

  <line x1="820" y1="1345" x2="820" y2="1370" stroke="#334155" stroke-width="0.8"/>
  <text x="880" y="1358" text-anchor="middle" font-size="16" font-weight="800" fill="#4ade80">4.1%</text>
  <text x="880" y="1372" text-anchor="middle" font-size="8" fill="#64748b">FPR</text>

  <line x1="940" y1="1345" x2="940" y2="1370" stroke="#334155" stroke-width="0.8"/>
  <text x="980" y="1358" text-anchor="middle" font-size="14" font-weight="800" fill="#a78bfa">0.953</text>
  <text x="980" y="1372" text-anchor="middle" font-size="8" fill="#64748b">IF AUC</text>

  <!-- ═══════════ LEGEND ═══════════ -->
  <rect x="40" y="1400" width="970" height="50" rx="8" fill="#f8fafc" stroke="#e2e8f0" stroke-width="1"/>
  <rect x="60" y="1418" width="14" height="14" rx="3" fill="#bae6fd" stroke="#38bdf8" stroke-width="1"/>
  <text x="80" y="1430" font-size="9" fill="#475569" font-weight="500">Data Source</text>
  <rect x="170" y="1418" width="14" height="14" rx="3" fill="#bbf7d0" stroke="#4ade80" stroke-width="1"/>
  <text x="190" y="1430" font-size="9" fill="#475569" font-weight="500">Preprocessing</text>
  <rect x="290" y="1418" width="14" height="14" rx="3" fill="#ddd6fe" stroke="#a78bfa" stroke-width="1"/>
  <text x="310" y="1430" font-size="9" fill="#475569" font-weight="500">ML Models</text>
  <rect x="390" y="1418" width="14" height="14" rx="3" fill="#fecaca" stroke="#f87171" stroke-width="1"/>
  <text x="410" y="1430" font-size="9" fill="#475569" font-weight="500">Detection</text>
  <rect x="490" y="1418" width="14" height="14" rx="3" fill="#fed7aa" stroke="#fb923c" stroke-width="1"/>
  <text x="510" y="1430" font-size="9" fill="#475569" font-weight="500">Streaming</text>
  <rect x="580" y="1418" width="14" height="14" rx="3" fill="#bae6fd" stroke="#38bdf8" stroke-width="1"/>
  <text x="600" y="1430" font-size="9" fill="#475569" font-weight="500">Output</text>
  <line x1="670" y1="1425" x2="700" y2="1425" stroke="#475569" stroke-width="2" marker-end="url(#a)"/>
  <text x="710" y="1430" font-size="9" fill="#475569" font-weight="500">Data flow</text>
  <line x1="780" y1="1425" x2="810" y2="1425" stroke="#94a3b8" stroke-width="1.5" stroke-dasharray="5,3" marker-end="url(#aLight)"/>
  <text x="820" y="1430" font-size="9" fill="#475569" font-weight="500">Indirect</text>

</svg>